<svg xmlns="http://www.w3.org/2000/svg" viewBox="0 0 168 168" width="168" height="168" preserveAspectRatio="xMidYMid meet" style="width: 100%; height: 100%; transform: translate3d(0px, 0px, 0px);"><defs><clipPath id="__lottie_element_10"><rect width="168" height="168" x="0" y="0"></rect></clipPath></defs><g clip-path="url(#__lottie_element_10)"><g transform="matrix(1,0,0,1,-0.5670013427734375,-0.45999908447265625)" opacity="1" style="display: block;"><g opacity="1" transform="matrix(1,0,0,1,84.40899658203125,84.3550033569336)"><path fill="rgb(253,211,126)" fill-opacity="1" d=" M21.840999603271484,83.8949966430664 C21.840999603271484,83.8949966430664 -22.159000396728516,83.8949966430664 -22.159000396728516,83.8949966430664 C-56.4010009765625,83.8949966430664 -84.15899658203125,56.13600158691406 -84.15899658203125,21.895000457763672 C-84.15899658203125,21.895000457763672 -84.15899658203125,-22.104999542236328 -84.15899658203125,-22.104999542236328 C-84.15899658203125,-56.34700012207031 -56.4010009765625,-84.1050033569336 -22.159000396728516,-84.1050033569336 C-22.159000396728516,-84.1050033569336 21.840999603271484,-84.1050033569336 21.840999603271484,-84.1050033569336 C56.082000732421875,-84.1050033569336 83.84100341796875,-56.34700012207031 83.84100341796875,-22.104999542236328 C83.84100341796875,-22.104999542236328 83.84100341796875,21.895000457763672 83.84100341796875,21.895000457763672 C83.84100341796875,56.13600158691406 56.082000732421875,83.8949966430664 21.840999603271484,83.8949966430664z"></path></g></g><g transform="matrix(1,0,0,1,65.5,86.5)" opacity="1" style="display: block;"><g opacity="1" transform="matrix(1,0,0,1,0,0)"><path stroke-linecap="round" stroke-linejoin="round" fill-opacity="0" stroke="rgb(227,161,33)" stroke-opacity="1" stroke-width="13" d=" M18.25,-36.75 C18.25,-36.75 18.25,0.5 18.25,0.5 M18.25,-38.25 C18.25,-38.25 18.25,0.5 18.25,0.5"></path></g></g><g transform="matrix(0,1,-1,0,84.5,69.25)" opacity="1" style="display: block;"><g opacity="1" transform="matrix(1,0,0,1,0,0)"><path stroke-linecap="round" stroke-linejoin="round" fill-opacity="0" stroke="rgb(227,161,33)" stroke-opacity="1" stroke-width="13" d=" M18.25,-31 C18.25,-31 18.25,0.5 18.25,0.5 M18.25,0.5"></path></g></g></g></svg>