<svg width="25" height="25" viewBox="0 0 25 25" fill="none" xmlns="http://www.w3.org/2000/svg"><mask id="mask0_0_99" style="mask-type:luminance" maskUnits="userSpaceOnUse" x="0" y="0" width="25" height="25"><rect width="25" height="25" rx="8" fill="white"></rect></mask><g mask="url(#mask0_0_99)"><path fill-rule="evenodd" clip-rule="evenodd" d="M3.66116 3.66117C3.07537 4.24695 3.07537 5.1967 3.66116 5.78249L10.3787 12.5L3.66116 19.2175C3.07537 19.8033 3.07537 20.753 3.66116 21.3388C4.24695 21.9246 5.1967 21.9246 5.78248 21.3388L12.5 14.6213L19.2175 21.3388C19.8033 21.9246 20.753 21.9246 21.3388 21.3388C21.9246 20.753 21.9246 19.8033 21.3388 19.2175L14.6213 12.5L21.3388 5.78249C21.9246 5.1967 21.9246 4.24695 21.3388 3.66117C20.753 3.07538 19.8033 3.07538 19.2175 3.66117L12.5 10.3787L5.78248 3.66117C5.1967 3.07538 4.24695 3.07538 3.66116 3.66117Z" fill="#DADADA"></path></g></svg>