<svg xmlns="http://www.w3.org/2000/svg" viewBox="0 0 168 168" width="168" height="168" preserveAspectRatio="xMidYMid meet" style="width: 100%; height: 100%; transform: translate3d(0px, 0px, 0px);"><defs><clipPath id="__lottie_element_29"><rect width="168" height="168" x="0" y="0"></rect></clipPath></defs><g clip-path="url(#__lottie_element_29)"><g transform="matrix(1,0,0,1,-0.25,-0.25)" opacity="1" style="display: block;"><g opacity="1" transform="matrix(1,0,0,1,84.25,84.25)"><path fill="rgb(255,211,183)" fill-opacity="1" d=" M22,84 C22,84 -22,84 -22,84 C-56.242000579833984,84 -84,56.24100112915039 -84,22 C-84,22 -84,-22 -84,-22 C-84,-56.242000579833984 -56.242000579833984,-84 -22,-84 C-22,-84 22,-84 22,-84 C56.24100112915039,-84 84,-56.242000579833984 84,-22 C84,-22 84,22 84,22 C84,56.24100112915039 56.24100112915039,84 22,84z"></path></g></g><g transform="matrix(0.9999991655349731,0,0,0.9999991655349731,43.799034118652344,45.27906799316406)" opacity="1" style="display: block;"><g opacity="1" transform="matrix(1,0,0,1,40.20100021362305,38.72100067138672)"><path fill="rgb(209,120,59)" fill-opacity="1" d=" M24.584999084472656,-28.593000411987305 C27.5049991607666,-28.593000411987305 29.89699935913086,-26.268999099731445 30.06399917602539,-23.288999557495117 C30.06399917602539,-23.288999557495117 30.072999954223633,-22.854000091552734 30.072999954223633,-22.854000091552734 C30.072999954223633,-22.854000091552734 30.072999954223633,14.246999740600586 30.072999954223633,14.246999740600586 C30.072999954223633,17.243999481201172 27.80500030517578,19.69499969482422 24.895999908447266,19.863000869750977 C24.895999908447266,19.863000869750977 24.47100067138672,19.874000549316406 24.47100067138672,19.874000549316406 C24.47100067138672,19.874000549316406 10.777000427246094,19.874000549316406 10.777000427246094,19.874000549316406 C10.777000427246094,19.874000549316406 6.960999965667725,19.874000549316406 6.960999965667725,19.874000549316406 C6.960999965667725,19.874000549316406 4.136000156402588,22.43899917602539 4.136000156402588,22.43899917602539 C4.136000156402588,22.43899917602539 -0.0020000000949949026,26.198999404907227 -0.0020000000949949026,26.198999404907227 C-0.0020000000949949026,26.198999404907227 -4.1479997634887695,22.437000274658203 -4.1479997634887695,22.437000274658203 C-4.1479997634887695,22.437000274658203 -6.9730000495910645,19.874000549316406 -6.9730000495910645,19.874000549316406 C-6.9730000495910645,19.874000549316406 -10.786999702453613,19.874000549316406 -10.786999702453613,19.874000549316406 C-10.786999702453613,19.874000549316406 -24.586000442504883,19.874000549316406 -24.586000442504883,19.874000549316406 C-27.41900062561035,19.874000549316406 -29.75,17.714000701904297 -30.042999267578125,14.835000038146973 C-30.042999267578125,14.835000038146973 -30.065000534057617,14.494999885559082 -30.065000534057617,14.494999885559082 C-30.065000534057617,14.494999885559082 -30.072999954223633,14.133000373840332 -30.072999954223633,14.133000373840332 C-30.072999954223633,14.133000373840332 -30.072999954223633,-22.965999603271484 -30.072999954223633,-22.965999603271484 C-30.072999954223633,-25.96299934387207 -27.80500030517578,-28.415000915527344 -24.895000457763672,-28.58300018310547 C-24.895000457763672,-28.58300018310547 -24.47100067138672,-28.593000411987305 -24.47100067138672,-28.593000411987305 C-24.47100067138672,-28.593000411987305 24.584999084472656,-28.593000411987305 24.584999084472656,-28.593000411987305z M24.584999084472656,-38.47100067138672 C24.584999084472656,-38.47100067138672 -24.584999084472656,-38.47100067138672 -24.584999084472656,-38.47100067138672 C-24.584999084472656,-38.47100067138672 -25.25200080871582,-38.45500183105469 -25.25200080871582,-38.45500183105469 C-33.47100067138672,-38.095001220703125 -39.95100021362305,-31.267000198364258 -39.95100021362305,-22.965999603271484 C-39.95100021362305,-22.965999603271484 -39.95100021362305,14.246999740600586 -39.95100021362305,14.246999740600586 C-39.95100021362305,14.246999740600586 -39.93600082397461,14.918999671936035 -39.93600082397461,14.918999671936035 C-39.93600082397461,14.918999671936035 -39.893001556396484,15.60200023651123 -39.893001556396484,15.60200023651123 C-39.196998596191406,23.608999252319336 -32.55099868774414,29.75200080871582 -24.584999084472656,29.750999450683594 C-24.584999084472656,29.750999450683594 -10.786999702453613,29.750999450683594 -10.786999702453613,29.750999450683594 C-10.786999702453613,29.750999450683594 -2.055999994277954,37.67399978637695 -2.055999994277954,37.67399978637695 C-2.055999994277954,37.67399978637695 -1.7510000467300415,37.92100143432617 -1.7510000467300415,37.92100143432617 C-1.7510000467300415,37.92100143432617 -1.4259999990463257,38.11800003051758 -1.4259999990463257,38.11800003051758 C-0.9760000109672546,38.35499954223633 -0.4869999885559082,38.47100067138672 -0.0010000000474974513,38.47100067138672 C0.7419999837875366,38.47100067138672 1.4789999723434448,38.19900131225586 2.055999994277954,37.67399978637695 C2.055999994277954,37.67399978637695 10.777000427246094,29.750999450683594 10.777000427246094,29.750999450683594 C10.777000427246094,29.750999450683594 24.584999084472656,29.750999450683594 24.584999084472656,29.750999450683594 C24.584999084472656,29.750999450683594 25.25200080871582,29.736000061035156 25.25200080871582,29.736000061035156 C33.47200012207031,29.375999450683594 39.95100021362305,22.548999786376953 39.95100021362305,14.246999740600586 C39.95100021362305,14.246999740600586 39.95100021362305,-22.965999603271484 39.95100021362305,-22.965999603271484 C39.95100021362305,-22.965999603271484 39.93600082397461,-23.638999938964844 39.93600082397461,-23.638999938964844 C39.57899856567383,-31.933000564575195 32.8129997253418,-38.47100067138672 24.584999084472656,-38.47100067138672z"></path></g></g><g style="display: block;" transform="matrix(1,0,0,1,64.83299255371094,72.41999816894531)" opacity="1"><g opacity="1" transform="matrix(1,0,0,1,5.020999908447266,4.960000038146973)"><path fill="rgb(209,120,59)" fill-opacity="1" d=" M-0.10199999809265137,-4.709000110626221 C1.565000057220459,-4.709000110626221 3.1059999465942383,-3.811000108718872 3.938999891281128,-2.3529999256134033 C4.771999835968018,-0.8960000276565552 4.770999908447266,0.8989999890327454 3.937000036239624,2.3550000190734863 C3.1029999256134033,3.812000036239624 1.562000036239624,4.710000038146973 -0.10499999672174454,4.710000038146973 C-2.683000087738037,4.709000110626221 -4.771999835968018,2.5989999771118164 -4.770999908447266,-0.0010000000474974513 C-4.769999980926514,-2.6029999256134033 -2.680000066757202,-4.710000038146973 -0.10199999809265137,-4.709000110626221z"></path></g></g><g style="display: block;" transform="matrix(1,0,0,1,80.49400329589844,72.41999816894531)" opacity="1"><g opacity="1" transform="matrix(1,0,0,1,5.020999908447266,4.960000038146973)"><path fill="rgb(209,120,59)" fill-opacity="1" d=" M-0.10199999809265137,-4.709000110626221 C1.565000057220459,-4.709000110626221 3.1059999465942383,-3.811000108718872 3.938999891281128,-2.3529999256134033 C4.771999835968018,-0.8960000276565552 4.770999908447266,0.8989999890327454 3.937000036239624,2.3550000190734863 C3.1029999256134033,3.812000036239624 1.562000036239624,4.710000038146973 -0.10499999672174454,4.710000038146973 C-2.683000087738037,4.709000110626221 -4.771999835968018,2.5989999771118164 -4.770999908447266,-0.0010000000474974513 C-4.769999980926514,-2.6029999256134033 -2.678999900817871,-4.710000038146973 -0.10199999809265137,-4.709000110626221z"></path></g></g><g style="display: block;" transform="matrix(1,0,0,1,96.17399597167969,72.41999816894531)" opacity="1"><g opacity="1" transform="matrix(1,0,0,1,5.020999908447266,4.960000038146973)"><path fill="rgb(209,120,59)" fill-opacity="1" d=" M-0.10300000011920929,-4.708000183105469 C1.565000057220459,-4.708000183105469 3.1050000190734863,-3.809999942779541 3.937999963760376,-2.3519999980926514 C4.770999908447266,-0.8949999809265137 4.770999908447266,0.8999999761581421 3.936000108718872,2.3559999465942383 C3.1019999980926514,3.812999963760376 1.5609999895095825,4.710000038146973 -0.10599999874830246,4.710000038146973 C-2.683000087738037,4.708000183105469 -4.770999908447266,2.5989999771118164 -4.769000053405762,-0.0020000000949949026 C-4.767000198364258,-2.6029999256134033 -2.677000045776367,-4.710000038146973 -0.0989999994635582,-4.708000183105469 C-0.0989999994635582,-4.708000183105469 -0.10300000011920929,-4.708000183105469 -0.10300000011920929,-4.708000183105469z"></path></g></g><g style="display: none;"><g><path></path></g></g><g style="display: none;"><g><path></path></g></g><g style="display: none;"><g><path></path></g></g></g></svg>