<svg xmlns="http://www.w3.org/2000/svg" viewBox="0 0 168 168" width="168" height="168" preserveAspectRatio="xMidYMid meet" style="width: 100%; height: 100%; transform: translate3d(0px, 0px, 0px);"><defs><clipPath id="__lottie_element_21"><rect width="168" height="168" x="0" y="0"></rect></clipPath></defs><g clip-path="url(#__lottie_element_21)"><g transform="matrix(1,0,0,1,-0.5670013427734375,-0.45999908447265625)" opacity="1" style="display: block;"><g opacity="1" transform="matrix(1,0,0,1,84.40899658203125,84.3550033569336)"><path fill="rgb(255,167,135)" fill-opacity="1" d=" M21.840999603271484,83.8949966430664 C21.840999603271484,83.8949966430664 -22.159000396728516,83.8949966430664 -22.159000396728516,83.8949966430664 C-56.4010009765625,83.8949966430664 -84.15899658203125,56.13600158691406 -84.15899658203125,21.895000457763672 C-84.15899658203125,21.895000457763672 -84.15899658203125,-22.104999542236328 -84.15899658203125,-22.104999542236328 C-84.15899658203125,-56.34700012207031 -56.4010009765625,-84.1050033569336 -22.159000396728516,-84.1050033569336 C-22.159000396728516,-84.1050033569336 21.840999603271484,-84.1050033569336 21.840999603271484,-84.1050033569336 C56.082000732421875,-84.1050033569336 83.84100341796875,-56.34700012207031 83.84100341796875,-22.104999542236328 C83.84100341796875,-22.104999542236328 83.84100341796875,21.895000457763672 83.84100341796875,21.895000457763672 C83.84100341796875,56.13600158691406 56.082000732421875,83.8949966430664 21.840999603271484,83.8949966430664z"></path></g></g><g transform="matrix(1,0,0,1,40.4219970703125,54.409996032714844)" opacity="1" style="display: block;"><g opacity="1" transform="matrix(1,0,0,1,18.714000701904297,7.75)"><path fill="rgb(228,96,51)" fill-opacity="1" d=" M7.5,0 C7.5,4.142000198364258 4.142000198364258,7.5 0,7.5 C-4.142000198364258,7.5 -7.5,4.142000198364258 -7.5,0 C-7.5,-4.142000198364258 -4.142000198364258,-7.5 0,-7.5 C4.142000198364258,-7.5 7.5,-4.142000198364258 7.5,0z"></path></g><g opacity="1" transform="matrix(1,0,0,1,67.80799865722656,7.75)"><path fill="rgb(228,96,51)" fill-opacity="1" d=" M7.5,0 C7.5,4.142000198364258 4.14300012588501,7.5 0,7.5 C-4.142000198364258,7.5 -7.5,4.142000198364258 -7.5,0 C-7.5,-4.142000198364258 -4.142000198364258,-7.5 0,-7.5 C4.14300012588501,-7.5 7.5,-4.142000198364258 7.5,0z"></path></g><g opacity="1" transform="matrix(1,0,0,1,44.81700134277344,49.305999755859375)"><path stroke-linecap="round" stroke-linejoin="round" fill-opacity="0" stroke="rgb(228,96,51)" stroke-opacity="1" stroke-width="10" d=" M-19.81800079345703,7.111000061035156 C-17.0310001373291,-1.1640000343322754 -9.213000297546387,-7.111000061035156 -0.0010000000474974513,-7.111000061035156 C9.211000442504883,-7.111000061035156 17.0310001373291,-1.1640000343322754 19.81800079345703,7.111000061035156"></path></g></g></g></svg>